<?xml version="1.0" encoding="utf-8"?>
<!-- Generator: Adobe Illustrator 18.1.1, SVG Export Plug-In . SVG Version: 6.00 Build 0)  -->
<svg version="1.1" id="Layer_1" xmlns="http://www.w3.org/2000/svg" xmlns:xlink="http://www.w3.org/1999/xlink" x="0px" y="0px"
	 viewBox="0 0 960 560" enable-background="new 0 0 960 560" xml:space="preserve">
<g>
	<path fill="#A5F458" d="M547.5,236l-262.4,58.1C285.1,294.2,480.4,492.6,547.5,236z"/>
	<path fill="#B2B2B2" stroke="#FFFFFF" stroke-miterlimit="10" d="M371,94.9c0,0-8,42.3,15,54.3c0,0,38.3,24-1.7,60.3
		c0,0,13-31.3-11.3-53C373,156.5,344.3,136.5,371,94.9z"/>
	<path fill="#B2B2B2" stroke="#FFFFFF" stroke-miterlimit="10" d="M384.2,71.5c0,0-5,26.5,9.4,34c0,0,24,15-1,37.7
		c0,0,8.1-19.6-7.1-33.1C385.5,110,367.5,97.5,384.2,71.5z"/>
	<path fill="#A5F458" d="M332.6,268c0,0-45.8-43.7-57.3-42.5l53.8,45.4c0,0-43.4,38.6-61.9-52.1C267.2,218.8,349.3,208.2,332.6,268z
		"/>
	<path fill="#A5F458" d="M350,248.6c0,0,13.6-28.6,11.2-33.9l-13.1,32.7c0,0-25.2-14.5,15-37.6C363.1,209.8,381,247.1,350,248.6z"/>
	<path fill="#7C5541" stroke="#FFFFFF" stroke-width="2" stroke-miterlimit="10" d="M544,190.9c-9.9,156-164.6,201.5-257,102.9
		c-2.4-2.5-6.3,0.6-4.4,3.5C396.7,475.8,577.7,353.9,547,190.7C546.7,188.9,544.1,189.1,544,190.9z"/>
	<path fill="none" stroke="#000000" stroke-miterlimit="10" d="M240.7,300.7"/>
	<path fill="#7C5541" stroke="#727272" stroke-miterlimit="10" d="M492.2,218.1L595.9,89c0,0,3.1-25.6-26.3-15l-88.8,135.8
		c0,0-56.2-16.6-73,54.6s24.9,55.8,24.9,55.8S532,286.8,492.2,218.1z"/>
</g>
</svg>
